<?xml version="1.0" encoding="UTF-8" standalone="no"?>
<!DOCTYPE svg PUBLIC "-//W3C//DTD SVG 1.1//EN"
 "http://www.w3.org/Graphics/SVG/1.1/DTD/svg11.dtd">
<!-- Generated by graphviz version 2.40.1 (20161225.0304)
 -->
<!-- Title: G Pages: 1 -->
<svg width="279pt" height="216pt"
 viewBox="0.00 0.00 279.15 216.00" xmlns="http://www.w3.org/2000/svg" xmlns:xlink="http://www.w3.org/1999/xlink">
<g id="graph0" class="graph" transform="scale(1 1) rotate(0) translate(4 212)">
<title>G</title>
<polygon fill="#ffffff" stroke="transparent" points="-4,4 -4,-212 275.1473,-212 275.1473,4 -4,4"/>
<!-- n1 -->
<g id="node1" class="node">
<title>n1</title>
<ellipse fill="#4b0082" stroke="#ffffff" cx="182.0302" cy="-190" rx="54.6851" ry="18"/>
<text text-anchor="middle" x="182.0302" y="-185.8" font-family="serif" font-size="14.00" fill="#ffffff">PacketPool</text>
</g>
<!-- n2 -->
<g id="node2" class="node">
<title>n2</title>
<ellipse fill="#4b0082" stroke="#ffffff" cx="73.0302" cy="-104" rx="73.0603" ry="18"/>
<text text-anchor="middle" x="73.0302" y="-99.8" font-family="serif" font-size="14.00" fill="#ffffff">Listener.Listen()</text>
</g>
<!-- n1&#45;&gt;n2 -->
<!-- Wildcard edge -->
<g id="edge1" class="edge">
<title>n1&#45;&gt;n2</title>
<path fill="none" stroke="#4b0082" d="M160.7551,-173.2142C144.3147,-160.2429 121.3516,-142.1252 103.0431,-127.68"/>
<polygon fill="#4b0082" stroke="#4b0082" points="105.0174,-124.7794 94.9988,-121.333 100.6815,-130.2749 105.0174,-124.7794"/>
<text text-anchor="middle" x="152.9198" y="-142.8" font-family="sans-serif" font-size="14.00" fill="#000000"> Get()</text>
</g>
<!-- n3 -->
<g id="node3" class="node">
<title>n3</title>
<ellipse fill="#4b0082" stroke="#ffffff" cx="127.0302" cy="-18" rx="117.549" ry="18"/>
<text text-anchor="middle" x="127.0302" y="-13.8" font-family="serif" font-size="14.00" fill="#ffffff">dogstatsd.handleMessages</text>
</g>
<!-- n2&#45;&gt;n3 -->
<!-- Wildcard edge -->
<g id="edge3" class="edge">
<title>n2&#45;&gt;n3</title>
<path fill="none" stroke="#4b0082" d="M36.4992,-88.2124C20.8855,-79.1566 8.1741,-67.0188 17.5966,-54 22.4035,-47.3584 35.3552,-41.2785 50.7419,-36.0818"/>
<polygon fill="#4b0082" stroke="#4b0082" points="52.1099,-39.3199 60.5859,-32.9631 49.9958,-32.6468 52.1099,-39.3199"/>
<text text-anchor="middle" x="120.747" y="-56.8" font-family="sans-serif" font-size="14.00" fill="#000000"> &#160;&#160;&#160;chan *listeners.PacketPool &#160;&#160;&#160;&#160;&#160;</text>
</g>
<!-- n3&#45;&gt;n1 -->
<!-- Wildcard edge -->
<g id="edge2" class="edge">
<title>n3&#45;&gt;n1</title>
<path fill="none" stroke="#4b0082" d="M185.1413,-33.7519C202.3607,-39.6624 217.9861,-46.7214 223.0302,-54 246.3256,-87.6153 222.2313,-134.7533 202.3714,-163.7856"/>
<polygon fill="#4b0082" stroke="#4b0082" points="199.3452,-162.0017 196.401,-172.1793 205.0494,-166.0591 199.3452,-162.0017"/>
<text text-anchor="middle" x="252.0887" y="-99.8" font-family="sans-serif" font-size="14.00" fill="#000000"> &#160;Put()</text>
</g>
</g>
</svg>
